{
    "asset" : {
        "generator" : "Khronos glTF Blender I/O v1.8.19",
        "version" : "2.0"
    },
    "scene" : 0,
    "scenes" : [
        {
            "name" : "Scene",
            "nodes" : [
                0
            ]
        }
    ],
    "nodes" : [
        {
            "mesh" : 0,
            "name" : "calendar"
        }
    ],
    "materials" : [
        {
            "doubleSided" : true,
            "name" : "body.001",
            "pbrMetallicRoughness" : {
                "baseColorFactor" : [
                    0.07886148244142532,
                    0.1208355501294136,
                    0.8549925684928894,
                    1
                ],
                "metallicFactor" : 0.24409449100494385,
                "roughnessFactor" : 0.36528050899505615
            }
        },
        {
            "doubleSided" : true,
            "name" : "ring.001",
            "pbrMetallicRoughness" : {
                "baseColorFactor" : [
                    1,
                    0.6466339230537415,
                    0.19539394974708557,
                    1
                ],
                "metallicFactor" : 0.22047242522239685,
                "roughnessFactor" : 0.31889763474464417
            }
        },
        {
            "doubleSided" : true,
            "name" : "date.001",
            "pbrMetallicRoughness" : {
                "metallicFactor" : 0.1015625,
                "roughnessFactor" : 0.1796875
            }
        },
        {
            "doubleSided" : true,
            "name" : "Material.005",
            "pbrMetallicRoughness" : {
                "baseColorFactor" : [
                    0.024156570434570312,
                    0.45078539848327637,
                    1,
                    1
                ],
                "metallicFactor" : 0,
                "roughnessFactor" : 0.5
            }
        },
        {
            "doubleSided" : true,
            "name" : "Material.006",
            "pbrMetallicRoughness" : {
                "baseColorFactor" : [
                    0.09328339248895645,
                    0.1691083014011383,
                    0.21403418481349945,
                    1
                ],
                "metallicFactor" : 0,
                "roughnessFactor" : 0.5
            }
        },
        {
            "doubleSided" : true,
            "name" : "Material.007",
            "pbrMetallicRoughness" : {
                "baseColorFactor" : [
                    0.01221848838031292,
                    0.022234497591853142,
                    0.069977767765522,
                    1
                ],
                "metallicFactor" : 0.078125,
                "roughnessFactor" : 0.5234375
            }
        }
    ],
    "meshes" : [
        {
            "name" : "Cube.013",
            "primitives" : [
                {
                    "attributes" : {
                        "POSITION" : 0,
                        "NORMAL" : 1,
                        "TEXCOORD_0" : 2
                    },
                    "indices" : 3,
                    "material" : 0
                },
                {
                    "attributes" : {
                        "POSITION" : 4,
                        "NORMAL" : 5,
                        "TEXCOORD_0" : 6
                    },
                    "indices" : 7,
                    "material" : 1
                },
                {
                    "attributes" : {
                        "POSITION" : 8,
                        "NORMAL" : 9,
                        "TEXCOORD_0" : 10
                    },
                    "indices" : 11,
                    "material" : 2
                },
                {
                    "attributes" : {
                        "POSITION" : 12,
                        "NORMAL" : 13,
                        "TEXCOORD_0" : 14
                    },
                    "indices" : 15,
                    "material" : 3
                },
                {
                    "attributes" : {
                        "POSITION" : 16,
                        "NORMAL" : 17,
                        "TEXCOORD_0" : 18
                    },
                    "indices" : 15,
                    "material" : 4
                },
                {
                    "attributes" : {
                        "POSITION" : 19,
                        "NORMAL" : 20,
                        "TEXCOORD_0" : 21
                    },
                    "indices" : 22,
                    "material" : 5
                }
            ]
        }
    ],
    "accessors" : [
        {
            "bufferView" : 0,
            "componentType" : 5126,
            "count" : 4184,
            "max" : [
                0.03999999910593033,
                0.5656551122665405,
                0.49556422233581543
            ],
            "min" : [
                -0.03999999910593033,
                -0.4343448877334595,
                -0.5044357776641846
            ],
            "type" : "VEC3"
        },
        {
            "bufferView" : 1,
            "componentType" : 5126,
            "count" : 4184,
            "type" : "VEC3"
        },
        {
            "bufferView" : 2,
            "componentType" : 5126,
            "count" : 4184,
            "type" : "VEC2"
        },
        {
            "bufferView" : 3,
            "componentType" : 5123,
            "count" : 7620,
            "type" : "SCALAR"
        },
        {
            "bufferView" : 4,
            "componentType" : 5126,
            "count" : 53608,
            "max" : [
                0.11002659797668457,
                0.6240338087081909,
                0.31240737438201904
            ],
            "min" : [
                -0.11002659797668457,
                0.4039805829524994,
                -0.318957656621933
            ],
            "type" : "VEC3"
        },
        {
            "bufferView" : 5,
            "componentType" : 5126,
            "count" : 53608,
            "type" : "VEC3"
        },
        {
            "bufferView" : 6,
            "componentType" : 5126,
            "count" : 53608,
            "type" : "VEC2"
        },
        {
            "bufferView" : 7,
            "componentType" : 5123,
            "count" : 307200,
            "type" : "SCALAR"
        },
        {
            "bufferView" : 8,
            "componentType" : 5126,
            "count" : 2741,
            "max" : [
                0.1048441156744957,
                0.30147966742515564,
                0.3267715573310852
            ],
            "min" : [
                0.07213786244392395,
                -0.19852034747600555,
                -0.3732284903526306
            ],
            "type" : "VEC3"
        },
        {
            "bufferView" : 9,
            "componentType" : 5126,
            "count" : 2741,
            "type" : "VEC3"
        },
        {
            "bufferView" : 10,
            "componentType" : 5126,
            "count" : 2741,
            "type" : "VEC2"
        },
        {
            "bufferView" : 11,
            "componentType" : 5123,
            "count" : 10692,
            "type" : "SCALAR"
        },
        {
            "bufferView" : 12,
            "componentType" : 5126,
            "count" : 782,
            "max" : [
                0.1048441156744957,
                0.30147966742515564,
                0.12677153944969177
            ],
            "min" : [
                0.07213786244392395,
                0.0014796555042266846,
                -0.17322847247123718
            ],
            "type" : "VEC3"
        },
        {
            "bufferView" : 13,
            "componentType" : 5126,
            "count" : 782,
            "type" : "VEC3"
        },
        {
            "bufferView" : 14,
            "componentType" : 5126,
            "count" : 782,
            "type" : "VEC2"
        },
        {
            "bufferView" : 15,
            "componentType" : 5123,
            "count" : 3048,
            "type" : "SCALAR"
        },
        {
            "bufferView" : 16,
            "componentType" : 5126,
            "count" : 782,
            "max" : [
                0.1048441156744957,
                0.30147966742515564,
                0.3267715573310852
            ],
            "min" : [
                0.07213786244392395,
                0.0014796555042266846,
                -0.3732284903526306
            ],
            "type" : "VEC3"
        },
        {
            "bufferView" : 17,
            "componentType" : 5126,
            "count" : 782,
            "type" : "VEC3"
        },
        {
            "bufferView" : 18,
            "componentType" : 5126,
            "count" : 782,
            "type" : "VEC2"
        },
        {
            "bufferView" : 19,
            "componentType" : 5126,
            "count" : 871,
            "max" : [
                0.07695689797401428,
                0.3262539207935333,
                0.3955641984939575
            ],
            "min" : [
                0.039952054619789124,
                -0.3737460672855377,
                -0.40443575382232666
            ],
            "type" : "VEC3"
        },
        {
            "bufferView" : 20,
            "componentType" : 5126,
            "count" : 871,
            "type" : "VEC3"
        },
        {
            "bufferView" : 21,
            "componentType" : 5126,
            "count" : 871,
            "type" : "VEC2"
        },
        {
            "bufferView" : 22,
            "componentType" : 5123,
            "count" : 3876,
            "type" : "SCALAR"
        }
    ],
    "bufferViews" : [
        {
            "buffer" : 0,
            "byteLength" : 50208,
            "byteOffset" : 0
        },
        {
            "buffer" : 0,
            "byteLength" : 50208,
            "byteOffset" : 50208
        },
        {
            "buffer" : 0,
            "byteLength" : 33472,
            "byteOffset" : 100416
        },
        {
            "buffer" : 0,
            "byteLength" : 15240,
            "byteOffset" : 133888
        },
        {
            "buffer" : 0,
            "byteLength" : 643296,
            "byteOffset" : 149128
        },
        {
            "buffer" : 0,
            "byteLength" : 643296,
            "byteOffset" : 792424
        },
        {
            "buffer" : 0,
            "byteLength" : 428864,
            "byteOffset" : 1435720
        },
        {
            "buffer" : 0,
            "byteLength" : 614400,
            "byteOffset" : 1864584
        },
        {
            "buffer" : 0,
            "byteLength" : 32892,
            "byteOffset" : 2478984
        },
        {
            "buffer" : 0,
            "byteLength" : 32892,
            "byteOffset" : 2511876
        },
        {
            "buffer" : 0,
            "byteLength" : 21928,
            "byteOffset" : 2544768
        },
        {
            "buffer" : 0,
            "byteLength" : 21384,
            "byteOffset" : 2566696
        },
        {
            "buffer" : 0,
            "byteLength" : 9384,
            "byteOffset" : 2588080
        },
        {
            "buffer" : 0,
            "byteLength" : 9384,
            "byteOffset" : 2597464
        },
        {
            "buffer" : 0,
            "byteLength" : 6256,
            "byteOffset" : 2606848
        },
        {
            "buffer" : 0,
            "byteLength" : 6096,
            "byteOffset" : 2613104
        },
        {
            "buffer" : 0,
            "byteLength" : 9384,
            "byteOffset" : 2619200
        },
        {
            "buffer" : 0,
            "byteLength" : 9384,
            "byteOffset" : 2628584
        },
        {
            "buffer" : 0,
            "byteLength" : 6256,
            "byteOffset" : 2637968
        },
        {
            "buffer" : 0,
            "byteLength" : 10452,
            "byteOffset" : 2644224
        },
        {
            "buffer" : 0,
            "byteLength" : 10452,
            "byteOffset" : 2654676
        },
        {
            "buffer" : 0,
            "byteLength" : 6968,
            "byteOffset" : 2665128
        },
        {
            "buffer" : 0,
            "byteLength" : 7752,
            "byteOffset" : 2672096
        }
    ],
    "buffers" : [
        {
            "byteLength" : 2679848,
            "uri" : "data:application/octet-stream;base64,"
        }
    ]
}
