{
    "asset" : {
        "generator" : "Khronos glTF Blender I/O v1.8.19",
        "version" : "2.0"
    },
    "scene" : 0,
    "scenes" : [
        {
            "name" : "Scene",
            "nodes" : [
                0
            ]
        }
    ],
    "nodes" : [
        {
            "mesh" : 0,
            "name" : "block02"
        }
    ],
    "animations" : [
        {
            "channels" : [
                {
                    "sampler" : 0,
                    "target" : {
                        "node" : 0,
                        "path" : "scale"
                    }
                },
                {
                    "sampler" : 1,
                    "target" : {
                        "node" : 0,
                        "path" : "rotation"
                    }
                }
            ],
            "name" : "popup",
            "samplers" : [
                {
                    "input" : 12,
                    "interpolation" : "LINEAR",
                    "output" : 13
                },
                {
                    "input" : 14,
                    "interpolation" : "LINEAR",
                    "output" : 15
                }
            ]
        }
    ],
    "materials" : [
        {
            "doubleSided" : true,
            "name" : "page.001",
            "pbrMetallicRoughness" : {
                "metallicFactor" : 0,
                "roughnessFactor" : 0.5
            }
        },
        {
            "doubleSided" : true,
            "name" : "Material.004",
            "pbrMetallicRoughness" : {
                "baseColorFactor" : [
                    0.8000000715255737,
                    0.2620287537574768,
                    0.06102040782570839,
                    1
                ],
                "metallicFactor" : 0,
                "roughnessFactor" : 0.5
            }
        },
        {
            "doubleSided" : true,
            "name" : "GRAY.003",
            "pbrMetallicRoughness" : {
                "baseColorFactor" : [
                    0.3185393214225769,
                    0.3185393214225769,
                    0.3185393214225769,
                    1
                ],
                "metallicFactor" : 0.0390625,
                "roughnessFactor" : 0.328125
            }
        }
    ],
    "meshes" : [
        {
            "name" : "Cube.011",
            "primitives" : [
                {
                    "attributes" : {
                        "POSITION" : 0,
                        "NORMAL" : 1,
                        "TEXCOORD_0" : 2
                    },
                    "indices" : 3,
                    "material" : 0
                },
                {
                    "attributes" : {
                        "POSITION" : 4,
                        "NORMAL" : 5,
                        "TEXCOORD_0" : 6
                    },
                    "indices" : 7,
                    "material" : 1
                },
                {
                    "attributes" : {
                        "POSITION" : 8,
                        "NORMAL" : 9,
                        "TEXCOORD_0" : 10
                    },
                    "indices" : 11,
                    "material" : 2
                }
            ]
        }
    ],
    "accessors" : [
        {
            "bufferView" : 0,
            "componentType" : 5126,
            "count" : 2291,
            "max" : [
                0.020945359021425247,
                0.15000002086162567,
                0.22683899104595184
            ],
            "min" : [
                -0.05173567682504654,
                -0.1499999463558197,
                -0.22683915495872498
            ],
            "type" : "VEC3"
        },
        {
            "bufferView" : 1,
            "componentType" : 5126,
            "count" : 2291,
            "type" : "VEC3"
        },
        {
            "bufferView" : 2,
            "componentType" : 5126,
            "count" : 2291,
            "type" : "VEC2"
        },
        {
            "bufferView" : 3,
            "componentType" : 5123,
            "count" : 9684,
            "type" : "SCALAR"
        },
        {
            "bufferView" : 4,
            "componentType" : 5126,
            "count" : 2395,
            "max" : [
                0.013311170041561127,
                0.13204671442508698,
                -0.08194959163665771
            ],
            "min" : [
                -0.01100335456430912,
                -0.0032424218952655792,
                -0.2175062596797943
            ],
            "type" : "VEC3"
        },
        {
            "bufferView" : 5,
            "componentType" : 5126,
            "count" : 2395,
            "type" : "VEC3"
        },
        {
            "bufferView" : 6,
            "componentType" : 5126,
            "count" : 2395,
            "type" : "VEC2"
        },
        {
            "bufferView" : 7,
            "componentType" : 5123,
            "count" : 13500,
            "type" : "SCALAR"
        },
        {
            "bufferView" : 8,
            "componentType" : 5126,
            "count" : 23523,
            "max" : [
                0.014083348214626312,
                0.0808461457490921,
                0.21418066322803497
            ],
            "min" : [
                -0.00432325154542923,
                -0.1118311882019043,
                -0.10302615165710449
            ],
            "type" : "VEC3"
        },
        {
            "bufferView" : 9,
            "componentType" : 5126,
            "count" : 23523,
            "type" : "VEC3"
        },
        {
            "bufferView" : 10,
            "componentType" : 5126,
            "count" : 23523,
            "type" : "VEC2"
        },
        {
            "bufferView" : 11,
            "componentType" : 5123,
            "count" : 97944,
            "type" : "SCALAR"
        },
        {
            "bufferView" : 12,
            "componentType" : 5126,
            "count" : 140,
            "max" : [
                5.6
            ],
            "min" : [
                0.04
            ],
            "type" : "SCALAR"
        },
        {
            "bufferView" : 13,
            "componentType" : 5126,
            "count" : 140,
            "type" : "VEC3"
        },
        {
            "bufferView" : 14,
            "componentType" : 5126,
            "count" : 14,
            "max" : [
                5.6
            ],
            "min" : [
                5.08
            ],
            "type" : "SCALAR"
        },
        {
            "bufferView" : 15,
            "componentType" : 5126,
            "count" : 14,
            "type" : "VEC4"
        }
    ],
    "bufferViews" : [
        {
            "buffer" : 0,
            "byteLength" : 27492,
            "byteOffset" : 0
        },
        {
            "buffer" : 0,
            "byteLength" : 27492,
            "byteOffset" : 27492
        },
        {
            "buffer" : 0,
            "byteLength" : 18328,
            "byteOffset" : 54984
        },
        {
            "buffer" : 0,
            "byteLength" : 19368,
            "byteOffset" : 73312
        },
        {
            "buffer" : 0,
            "byteLength" : 28740,
            "byteOffset" : 92680
        },
        {
            "buffer" : 0,
            "byteLength" : 28740,
            "byteOffset" : 121420
        },
        {
            "buffer" : 0,
            "byteLength" : 19160,
            "byteOffset" : 150160
        },
        {
            "buffer" : 0,
            "byteLength" : 27000,
            "byteOffset" : 169320
        },
        {
            "buffer" : 0,
            "byteLength" : 282276,
            "byteOffset" : 196320
        },
        {
            "buffer" : 0,
            "byteLength" : 282276,
            "byteOffset" : 478596
        },
        {
            "buffer" : 0,
            "byteLength" : 188184,
            "byteOffset" : 760872
        },
        {
            "buffer" : 0,
            "byteLength" : 195888,
            "byteOffset" : 949056
        },
        {
            "buffer" : 0,
            "byteLength" : 560,
            "byteOffset" : 1144944
        },
        {
            "buffer" : 0,
            "byteLength" : 1680,
            "byteOffset" : 1145504
        },
        {
            "buffer" : 0,
            "byteLength" : 56,
            "byteOffset" : 1147184
        },
        {
            "buffer" : 0,
            "byteLength" : 224,
            "byteOffset" : 1147240
        }
    ],
    "buffers" : [
        {
            "byteLength" : 1147464,
            "uri" : "data:application/octet-stream;base64,"
        }
    ]
}
