{
    "asset" : {
        "generator" : "Khronos glTF Blender I/O v1.8.19",
        "version" : "2.0"
    },
    "extensionsUsed" : [
        "KHR_texture_transform"
    ],
    "extensionsRequired" : [
        "KHR_texture_transform"
    ],
    "scene" : 0,
    "scenes" : [
        {
            "name" : "Scene",
            "nodes" : [
                0
            ]
        }
    ],
    "nodes" : [
        {
            "mesh" : 0,
            "name" : "CarSeat",
            "rotation" : [
                0,
                1,
                0,
                -4.371138828673793e-08
            ]
        }
    ],
    "materials" : [
        {
            "doubleSided" : true,
            "name" : "Plastico Negro",
            "normalTexture" : {
                "extensions" : {
                    "KHR_texture_transform" : {
                        "offset" : [
                            0,
                            -99.00000223517424
                        ],
                        "scale" : [
                            100.00000223517424,
                            100.00000223517424
                        ]
                    }
                },
                "index" : 0,
                "scale" : 2
            },
            "pbrMetallicRoughness" : {
                "baseColorFactor" : [
                    0.0071915616281330585,
                    0.005180022679269314,
                    0.003759844461455941,
                    1
                ],
                "metallicFactor" : 0,
                "roughnessFactor" : 0.800000011920929
            }
        },
        {
            "doubleSided" : true,
            "name" : "CUERO NEGRO",
            "normalTexture" : {
                "extensions" : {
                    "KHR_texture_transform" : {
                        "offset" : [
                            0,
                            -49.00000111758712
                        ],
                        "scale" : [
                            50.00000111758712,
                            50.00000111758712
                        ]
                    }
                },
                "index" : 1,
                "scale" : 2
            },
            "pbrMetallicRoughness" : {
                "baseColorFactor" : [
                    0.9215813875198364,
                    0.5332761406898499,
                    0.29613834619522095,
                    1
                ],
                "metallicFactor" : 0,
                "roughnessFactor" : 0.3894652724266052
            }
        },
        {
            "doubleSided" : true,
            "name" : "Aluminio galvanizado",
            "pbrMetallicRoughness" : {
                "baseColorFactor" : [
                    0.3843628764152527,
                    0.3843628764152527,
                    0.3843628764152527,
                    1
                ],
                "roughnessFactor" : 0.5
            }
        },
        {
            "doubleSided" : true,
            "name" : "Aluminio negro",
            "pbrMetallicRoughness" : {
                "baseColorFactor" : [
                    0.0331033393740654,
                    0.0331033393740654,
                    0.0331033393740654,
                    1
                ],
                "roughnessFactor" : 0.5
            }
        }
    ],
    "meshes" : [
        {
            "name" : "Cube.004",
            "primitives" : [
                {
                    "attributes" : {
                        "POSITION" : 0,
                        "NORMAL" : 1,
                        "TEXCOORD_0" : 2
                    },
                    "indices" : 3,
                    "material" : 0
                },
                {
                    "attributes" : {
                        "POSITION" : 4,
                        "NORMAL" : 5,
                        "TEXCOORD_0" : 6
                    },
                    "indices" : 7,
                    "material" : 1
                },
                {
                    "attributes" : {
                        "POSITION" : 8,
                        "NORMAL" : 9,
                        "TEXCOORD_0" : 10
                    },
                    "indices" : 11,
                    "material" : 2
                },
                {
                    "attributes" : {
                        "POSITION" : 12,
                        "NORMAL" : 13,
                        "TEXCOORD_0" : 14
                    },
                    "indices" : 15,
                    "material" : 3
                }
            ]
        }
    ],
    "textures" : [
        {
            "sampler" : 0,
            "source" : 0
        },
        {
            "sampler" : 0,
            "source" : 0
        }
    ],
    "images" : [
        {
            "bufferView" : 4,
            "mimeType" : "image/jpeg",
            "name" : "Leather_006_NORM"
        }
    ],
    "accessors" : [
        {
            "bufferView" : 0,
            "componentType" : 5126,
            "count" : 1228,
            "max" : [
                1.1140402555465698,
                0.3915846645832062,
                1.563493251800537
            ],
            "min" : [
                -1.1140402555465698,
                -0.3295057415962219,
                -1.0923948287963867
            ],
            "type" : "VEC3"
        },
        {
            "bufferView" : 1,
            "componentType" : 5126,
            "count" : 1228,
            "type" : "VEC3"
        },
        {
            "bufferView" : 2,
            "componentType" : 5126,
            "count" : 1228,
            "type" : "VEC2"
        },
        {
            "bufferView" : 3,
            "componentType" : 5123,
            "count" : 5184,
            "type" : "SCALAR"
        },
        {
            "bufferView" : 5,
            "componentType" : 5126,
            "count" : 2155,
            "max" : [
                1.0973474979400635,
                3.221052408218384,
                2.3461194038391113
            ],
            "min" : [
                -1.0973474979400635,
                -0.226146399974823,
                -1.139346957206726
            ],
            "type" : "VEC3"
        },
        {
            "bufferView" : 6,
            "componentType" : 5126,
            "count" : 2155,
            "type" : "VEC3"
        },
        {
            "bufferView" : 7,
            "componentType" : 5126,
            "count" : 2155,
            "type" : "VEC2"
        },
        {
            "bufferView" : 8,
            "componentType" : 5123,
            "count" : 9636,
            "type" : "SCALAR"
        },
        {
            "bufferView" : 9,
            "componentType" : 5126,
            "count" : 1334,
            "max" : [
                1.1062480211257935,
                0.26493483781814575,
                1.2910048961639404
            ],
            "min" : [
                -1.1062480211257935,
                -0.28048110008239746,
                -1.0969452857971191
            ],
            "type" : "VEC3"
        },
        {
            "bufferView" : 10,
            "componentType" : 5126,
            "count" : 1334,
            "type" : "VEC3"
        },
        {
            "bufferView" : 11,
            "componentType" : 5126,
            "count" : 1334,
            "type" : "VEC2"
        },
        {
            "bufferView" : 12,
            "componentType" : 5123,
            "count" : 5400,
            "type" : "SCALAR"
        },
        {
            "bufferView" : 13,
            "componentType" : 5126,
            "count" : 624,
            "max" : [
                1.098602056503296,
                0.29461169242858887,
                0.29395899176597595
            ],
            "min" : [
                -1.098602056503296,
                0.05721364542841911,
                -0.4860638678073883
            ],
            "type" : "VEC3"
        },
        {
            "bufferView" : 14,
            "componentType" : 5126,
            "count" : 624,
            "type" : "VEC3"
        },
        {
            "bufferView" : 15,
            "componentType" : 5126,
            "count" : 624,
            "type" : "VEC2"
        },
        {
            "bufferView" : 16,
            "componentType" : 5123,
            "count" : 2196,
            "type" : "SCALAR"
        }
    ],
    "bufferViews" : [
        {
            "buffer" : 0,
            "byteLength" : 14736,
            "byteOffset" : 0
        },
        {
            "buffer" : 0,
            "byteLength" : 14736,
            "byteOffset" : 14736
        },
        {
            "buffer" : 0,
            "byteLength" : 9824,
            "byteOffset" : 29472
        },
        {
            "buffer" : 0,
            "byteLength" : 10368,
            "byteOffset" : 39296
        },
        {
            "buffer" : 0,
            "byteLength" : 364184,
            "byteOffset" : 49664
        },
        {
            "buffer" : 0,
            "byteLength" : 25860,
            "byteOffset" : 413848
        },
        {
            "buffer" : 0,
            "byteLength" : 25860,
            "byteOffset" : 439708
        },
        {
            "buffer" : 0,
            "byteLength" : 17240,
            "byteOffset" : 465568
        },
        {
            "buffer" : 0,
            "byteLength" : 19272,
            "byteOffset" : 482808
        },
        {
            "buffer" : 0,
            "byteLength" : 16008,
            "byteOffset" : 502080
        },
        {
            "buffer" : 0,
            "byteLength" : 16008,
            "byteOffset" : 518088
        },
        {
            "buffer" : 0,
            "byteLength" : 10672,
            "byteOffset" : 534096
        },
        {
            "buffer" : 0,
            "byteLength" : 10800,
            "byteOffset" : 544768
        },
        {
            "buffer" : 0,
            "byteLength" : 7488,
            "byteOffset" : 555568
        },
        {
            "buffer" : 0,
            "byteLength" : 7488,
            "byteOffset" : 563056
        },
        {
            "buffer" : 0,
            "byteLength" : 4992,
            "byteOffset" : 570544
        },
        {
            "buffer" : 0,
            "byteLength" : 4392,
            "byteOffset" : 575536
        }
    ],
    "samplers" : [
        {
            "magFilter" : 9729,
            "minFilter" : 9987
        }
    ],
    "buffers" : [
        {
            "byteLength" : 579928,
            "uri" : "data:application/octet-stream;base64,"
        }
    ]
}
